# Made in Blockbench 3.9.2
mtllib as.mtl
o cube
v 0.026517965758708517 0.37500000000000006 -0.0916245975376942
v 0.026517965758708517 0.06250000000000003 -0.09162459753769425
v 0.09162459753769425 0.37499999999999994 0.21401796575870857
v 0.09162459753769425 0.062499999999999965 0.2140179657587085
v -0.27912459753769425 0.06250000000000003 -0.02651796575870846
v -0.27912459753769425 0.37500000000000006 -0.026517965758708406
v -0.2140179657587085 0.06249999999999996 0.27912459753769425
v -0.2140179657587085 0.37499999999999994 0.2791245975376943
vt 0.0009765625 0.6865234375
vt 0.0009765625 0.3759765625
vt 0.3115234375 0.6865234375
vt 0.0009765625 0.3759765625
vt 0.3115234375 0.3759765625
vt 0.3115234375 0.6865234375
vt 0.6259765625 0.6865234375
vt 0.6259765625 0.3759765625
vt 0.9365234375 0.6865234375
vt 0.6259765625 0.3759765625
vt 0.9365234375 0.3759765625
vt 0.9365234375 0.6865234375
vt 0.6240234375 0.6884765625
vt 0.6240234375 0.9990234375
vt 0.3134765625 0.6884765625
vt 0.6240234375 0.9990234375
vt 0.3134765625 0.9990234375
vt 0.3134765625 0.6884765625
vt 0.9365234375 0.9990234375
vt 0.9365234375 0.6884765625
vt 0.6259765625 0.9990234375
vt 0.9365234375 0.6884765625
vt 0.6259765625 0.6884765625
vt 0.6259765625 0.9990234375
vt 0.9384765625 0.6865234375
vt 0.9384765625 0.3759765625
vt 1.2490234375 0.6865234375
vt 0.9384765625 0.3759765625
vt 1.2490234375 0.3759765625
vt 1.2490234375 0.6865234375
vt 0.3134765625 0.6865234375
vt 0.3134765625 0.3759765625
vt 0.6240234375 0.6865234375
vt 0.3134765625 0.3759765625
vt 0.6240234375 0.3759765625
vt 0.6240234375 0.6865234375
vn 0.9780562025484889 3.26877878172813e-17 -0.20834122169275449
vn 0.9780562025484889 3.26877878172813e-17 -0.20834122169275449
vn 0.9780562025484889 3.26877878172813e-17 -0.20834122169275449
vn 0.9780562025484889 3.26877878172813e-17 -0.20834122169275449
vn 0.9780562025484889 3.26877878172813e-17 -0.20834122169275449
vn 0.9780562025484889 3.26877878172813e-17 -0.20834122169275449
vn -0.9780562025484889 -3.26877878172813e-17 0.20834122169275449
vn -0.9780562025484889 -3.26877878172813e-17 0.20834122169275449
vn -0.9780562025484889 -3.26877878172813e-17 0.20834122169275449
vn -0.9780562025484889 -3.26877878172813e-17 0.20834122169275449
vn -0.9780562025484889 -3.26877878172813e-17 0.20834122169275449
vn -0.9780562025484889 -3.26877878172813e-17 0.20834122169275449
vn -0.20834122169275449 2.200634183556285e-16 -0.978056202548489
vn -0.20834122169275449 2.200634183556285e-16 -0.978056202548489
vn -0.20834122169275449 2.200634183556285e-16 -0.978056202548489
vn -0.20834122169275449 2.200634183556285e-16 -0.978056202548489
vn -0.20834122169275449 2.200634183556285e-16 -0.978056202548489
vn -0.20834122169275449 2.200634183556285e-16 -0.978056202548489
vn 0.20834122169275449 -2.200634183556285e-16 0.978056202548489
vn 0.20834122169275449 -2.200634183556285e-16 0.978056202548489
vn 0.20834122169275449 -2.200634183556285e-16 0.978056202548489
vn 0.20834122169275449 -2.200634183556285e-16 0.978056202548489
vn 0.20834122169275449 -2.200634183556285e-16 0.978056202548489
vn 0.20834122169275449 -2.200634183556285e-16 0.978056202548489
vn 3.26877878172813e-17 1 2.200634183556285e-16
vn 3.26877878172813e-17 1 2.200634183556285e-16
vn 3.26877878172813e-17 1 2.200634183556285e-16
vn 3.26877878172813e-17 1 2.200634183556285e-16
vn 3.26877878172813e-17 1 2.200634183556285e-16
vn 3.26877878172813e-17 1 2.200634183556285e-16
vn -3.26877878172813e-17 -1 -2.200634183556285e-16
vn -3.26877878172813e-17 -1 -2.200634183556285e-16
vn -3.26877878172813e-17 -1 -2.200634183556285e-16
vn -3.26877878172813e-17 -1 -2.200634183556285e-16
vn -3.26877878172813e-17 -1 -2.200634183556285e-16
vn -3.26877878172813e-17 -1 -2.200634183556285e-16
usemtl m_0
f 1/1/1 3/2/2 2/3/3
f 3/4/4 4/5/5 2/6/6
usemtl m_0
f 5/7/7 7/8/8 6/9/9
f 7/10/10 8/11/11 6/12/12
usemtl m_0
f 5/13/13 6/14/14 2/15/15
f 6/16/16 1/17/17 2/18/18
usemtl m_0
f 8/19/19 7/20/20 3/21/21
f 7/22/22 4/23/23 3/24/24
usemtl m_0
f 6/25/25 8/26/26 1/27/27
f 8/28/28 3/29/29 1/30/30
usemtl m_0
f 2/31/31 4/32/32 5/33/33
f 4/34/34 7/35/35 5/36/36
